<svg xmlns="http://www.w3.org/2000/svg" xmlns:xlink="http://www.w3.org/1999/xlink" width="1000" zoomAndPan="magnify" viewBox="0 0 750 749.999995" height="1000" preserveAspectRatio="xMidYMid meet" version="1.2"><defs><clipPath id="f6509af4cb"><path d="M 2 34.6875 L 749 34.6875 L 749 715 L 2 715 Z M 2 34.6875 "/></clipPath></defs><g id="ca89682c85"><g clip-rule="nonzero" clip-path="url(#f6509af4cb)"><path style=" stroke:none;fill-rule:nonzero;fill:#412568;fill-opacity:1;" d="M 732.109375 308.15625 C 731.96875 307.832031 731.738281 307.5625 731.414062 307.386719 C 714.726562 297.960938 697.027344 293.179688 678.808594 293.179688 C 654.859375 293.179688 630.761719 301.613281 607.207031 318.238281 C 605.292969 319.585938 603.058594 320.296875 600.734375 320.296875 C 597.074219 320.296875 593.640625 318.519531 591.539062 315.535156 C 587.972656 310.476562 589.175781 303.453125 594.253906 299.875 C 622.472656 279.953125 648.523438 270.273438 673.878906 270.273438 C 686.273438 270.273438 698.863281 272.582031 712.414062 277.355469 C 713.058594 277.582031 713.773438 277.371094 714.191406 276.839844 C 714.632812 276.296875 724.769531 263.09375 719.308594 230.964844 C 716.886719 219.421875 712.453125 209.996094 706.179688 203.035156 C 693.535156 186.988281 680.710938 183.621094 672.171875 183.621094 C 666.875 183.621094 663.519531 184.941406 663.375 184.996094 C 663.0625 185.121094 662.800781 185.335938 662.625 185.628906 C 650.355469 204.921875 636.117188 217.875 610.105469 233.445312 C 608.351562 234.488281 606.367188 235.035156 604.34375 235.035156 C 600.402344 235.035156 596.71875 232.941406 594.691406 229.566406 C 591.511719 224.25 593.25 217.335938 598.5625 214.152344 C 629.960938 195.363281 642.445312 183.011719 650 163.171875 C 653.816406 149.171875 649.113281 130.292969 639.09375 119.320312 L 637.082031 116.855469 C 625.6875 102.835938 604.511719 76.730469 550.972656 63.015625 C 543.542969 60.652344 535.957031 59.457031 528.414062 59.457031 C 506.597656 59.457031 492.367188 69.273438 491.773438 69.691406 C 491.183594 70.101562 490.945312 70.851562 491.167969 71.523438 C 493.292969 77.765625 499.769531 96.753906 493.179688 118.015625 C 491.71875 122.75 487.390625 125.925781 482.449219 125.925781 C 481.320312 125.925781 480.199219 125.765625 479.109375 125.425781 C 473.199219 123.585938 469.878906 117.28125 471.71875 111.363281 C 476.082031 97.28125 475.148438 84.84375 468.867188 73.355469 C 460.652344 58.320312 449.265625 48.199219 434.125 42.429688 C 419.667969 36.277344 396.761719 34.910156 387.523438 34.609375 C 327.996094 34.933594 285.5625 38.765625 231.851562 57.980469 C 224.976562 60.21875 219.613281 64.722656 216.75 70.648438 C 213.363281 77.664062 213.441406 86.410156 216.988281 95.9375 C 217.035156 96.050781 217.160156 96.4375 217.375 97.054688 C 221.53125 109.214844 225.59375 120.125 229.457031 129.496094 C 230.601562 132.269531 230.601562 135.320312 229.449219 138.09375 C 228.296875 140.859375 226.136719 143.023438 223.363281 144.167969 C 221.988281 144.730469 220.550781 145.015625 219.082031 145.015625 C 214.546875 145.015625 210.46875 142.28125 208.683594 138.054688 C 205.460938 130.367188 195.425781 105.222656 195.332031 104.992188 C 195.148438 104.496094 190.496094 92.832031 175.515625 92.832031 C 164.269531 92.832031 150.308594 99.527344 134.0625 112.722656 C 112.453125 129.464844 101.421875 144.628906 101.265625 157.789062 C 101.160156 167.066406 106.699219 171.664062 107.085938 171.964844 C 111.542969 174.804688 135.761719 193.269531 145.882812 204.542969 C 150.117188 209.246094 149.976562 216.246094 145.566406 220.464844 C 143.464844 222.472656 140.707031 223.578125 137.800781 223.578125 C 134.703125 223.578125 131.820312 222.34375 129.679688 220.109375 C 104.558594 193.867188 83.960938 181.09375 66.703125 181.09375 C 64.277344 181.09375 61.898438 181.359375 59.625 181.875 C 52.925781 183.414062 42.066406 191.128906 35.53125 201.296875 C 12.484375 231.242188 4.960938 254.734375 2.835938 294.941406 C 1.550781 319.003906 8.050781 342.492188 15.34375 352.695312 C 25.59375 367.035156 35.960938 375.15625 39.894531 377.996094 C 39.894531 377.996094 43.054688 380.007812 44.257812 379.0625 C 54.519531 371.003906 66.269531 366.773438 80.695312 366.773438 C 89.324219 366.773438 99.082031 368.226562 109.695312 371.097656 C 112.507812 371.863281 114.855469 373.703125 116.300781 376.28125 C 117.785156 378.925781 118.148438 382.117188 117.289062 385.027344 C 115.898438 389.785156 111.472656 393.109375 106.503906 393.109375 C 105.4375 393.109375 104.378906 392.945312 103.351562 392.652344 C 95.9375 390.488281 89.015625 389.570312 82.789062 389.386719 C 76.652344 389.222656 65.464844 389.800781 60.398438 395.527344 C 60.167969 395.789062 59.957031 396.050781 59.878906 396.382812 C 59.8125 396.703125 58.613281 424.050781 97.542969 438.003906 C 130.238281 449.714844 147.234375 450.101562 218.285156 450.101562 C 228.761719 450.101562 240.289062 449.992188 254.542969 449.753906 C 258.136719 449.652344 263.226562 447.882812 266.472656 444.121094 C 268.941406 441.261719 270 437.679688 269.53125 433.929688 C 269.492188 427.898438 270.425781 422.390625 272.496094 416.59375 C 281.011719 392.738281 298.152344 377.164062 328.089844 366.0625 C 329.355469 365.589844 330.664062 365.351562 332 365.351562 C 336.671875 365.351562 340.898438 368.300781 342.53125 372.691406 C 343.574219 375.503906 343.464844 378.554688 342.203125 381.28125 C 340.953125 384.015625 338.71875 386.085938 335.910156 387.136719 C 313.019531 395.628906 298.917969 407.757812 293.988281 423.183594 C 285.683594 449.21875 304.90625 477.804688 305.136719 478.035156 C 362.34375 534.101562 473.492188 535.699219 479.078125 520.140625 C 483.785156 508.589844 487.019531 490.257812 475.671875 468.480469 C 457.894531 434.378906 397.589844 432.261719 396.980469 432.230469 C 390.792969 432.0625 385.886719 426.878906 386.0625 420.703125 C 386.226562 414.679688 391.277344 409.773438 397.566406 409.773438 C 400.585938 409.859375 471.664062 412.191406 495.589844 458.097656 C 508.582031 483.011719 506.753906 505.183594 502.921875 519.4375 C 502 523.261719 502.695312 527.125 504.773438 529.773438 C 506.101562 531.441406 508.582031 533.4375 512.988281 533.4375 C 512.988281 533.4375 552.355469 533.691406 584.527344 527 C 588.875 526.105469 593.023438 529.320312 593.703125 533.683594 C 594.382812 538.0625 591.378906 542.175781 587.007812 542.855469 C 539.792969 550.238281 498.402344 553.933594 462.46875 553.933594 C 419.050781 553.933594 383.597656 548.53125 355.445312 537.722656 C 355.925781 557.570312 362.671875 574.875 374.929688 589.039062 C 375.007812 589.152344 375.078125 589.238281 375.148438 589.347656 C 379.234375 593.648438 385.359375 599.738281 390.953125 604.835938 C 395.234375 608.738281 415.480469 621.640625 420.75 624.824219 C 430.917969 630.753906 477.148438 659.203125 481.589844 662.058594 C 501.9375 675.171875 507.964844 689.402344 508.597656 690.25 C 510.769531 693.125 511.890625 701.652344 511.890625 701.652344 C 513.730469 709.300781 520.628906 714.988281 528.847656 714.964844 C 538.449219 714.941406 546.230469 707.132812 546.199219 697.519531 C 546.199219 697.519531 546.46875 677.980469 538.851562 664.59375 C 537.632812 662.113281 521.601562 635.847656 503.097656 621.578125 C 497.480469 617.242188 484.230469 607.554688 484.230469 607.554688 L 484.15625 607.515625 C 482.648438 606.488281 482.175781 604.464844 483.144531 602.898438 C 484.125 601.304688 486.21875 600.796875 487.832031 601.777344 C 487.832031 601.777344 526.871094 629.195312 551.34375 622.375 C 587.316406 612.351562 634.394531 588.699219 634.394531 535.46875 C 634.394531 527.558594 633.605469 520.117188 632.109375 513.109375 C 637.097656 510.453125 642.058594 507.449219 647.011719 503.996094 C 652.820312 499.34375 654.550781 493.578125 654.976562 489.5625 C 655.578125 483.816406 653.917969 477.726562 650.632812 473.710938 L 626.933594 443.1875 L 626.652344 442.882812 C 621.71875 436.613281 615.257812 435.296875 610.699219 435.296875 C 606.8125 435.296875 603.769531 436.234375 602.140625 436.851562 C 593.8125 441.054688 585.035156 444.5 576.097656 447.085938 C 570.210938 448.78125 563.851562 445.203125 562.183594 439.40625 C 561.355469 436.527344 561.6875 433.492188 563.132812 430.863281 C 564.585938 428.238281 566.964844 426.335938 569.855469 425.511719 C 590.25 419.613281 627.046875 403.34375 644.492188 360.597656 C 646.214844 356.351562 650.300781 353.609375 654.90625 353.609375 C 656.359375 353.609375 657.78125 353.886719 659.132812 354.441406 C 664.871094 356.773438 667.644531 363.351562 665.296875 369.089844 C 659.703125 382.804688 652.039062 395.21875 642.382812 406.203125 C 637.980469 413.3125 638.550781 420.671875 644.191406 428.777344 L 659.671875 448.894531 C 659.882812 449.179688 660.167969 449.382812 660.5 449.46875 C 660.753906 449.542969 666.804688 451.25 675.441406 451.25 C 687.074219 451.25 703.539062 448.09375 715.859375 432.996094 C 745.976562 396.988281 747.441406 365.828125 748.5 343.078125 C 748.617188 340.8125 748.710938 338.613281 748.839844 336.265625 C 747.511719 319.601562 736.867188 311.140625 732.109375 308.15625 Z M 270.820312 293.230469 C 256.335938 307.546875 240.351562 318.085938 223.332031 324.566406 C 223.136719 324.636719 222.976562 324.746094 222.835938 324.882812 C 215.003906 329.140625 212.269531 335.011719 213.726562 344.484375 L 220.179688 381.203125 C 220.757812 384.148438 220.15625 387.144531 218.480469 389.632812 C 216.804688 392.121094 214.269531 393.820312 211.316406 394.390625 C 205.253906 395.589844 199.296875 391.5 198.121094 385.539062 L 191.09375 345.90625 C 188.945312 337.578125 180.949219 333.171875 175.765625 332.585938 C 175.554688 332.46875 175.308594 332.402344 175.046875 332.394531 C 119.199219 330.378906 74.496094 294.296875 74.050781 293.933594 C 71.730469 292.027344 70.285156 289.339844 69.984375 286.355469 C 69.691406 283.375 70.582031 280.445312 72.472656 278.128906 C 74.613281 275.511719 77.789062 274.011719 81.171875 274.011719 C 83.746094 274.011719 86.269531 274.90625 88.273438 276.546875 C 89.964844 277.921875 130.261719 310.238281 178.625 310.238281 C 207.160156 310.238281 232.871094 299.132812 255.035156 277.253906 C 259.300781 273.039062 266.703125 273.078125 270.921875 277.355469 C 273.03125 279.488281 274.179688 282.324219 274.15625 285.320312 C 274.148438 288.3125 272.960938 291.125 270.820312 293.230469 Z M 285.628906 215.210938 C 250.515625 215.210938 225.402344 236.9375 224.34375 237.855469 C 222.289062 239.65625 219.660156 240.652344 216.933594 240.652344 C 213.699219 240.652344 210.613281 239.261719 208.488281 236.835938 C 206.511719 234.578125 205.523438 231.691406 205.722656 228.691406 C 205.910156 225.703125 207.261719 222.960938 209.519531 220.984375 C 224.898438 207.460938 253.050781 193.023438 285.917969 193.023438 C 309.59375 193.023438 332.238281 200.53125 353.222656 215.351562 C 355.671875 217.082031 357.300781 219.660156 357.808594 222.621094 C 358.320312 225.570312 357.648438 228.554688 355.917969 231.003906 C 353.816406 233.984375 350.378906 235.761719 346.730469 235.761719 C 344.40625 235.761719 342.175781 235.050781 340.265625 233.699219 C 322.890625 221.429688 304.503906 215.210938 285.628906 215.210938 Z M 545.621094 374.46875 C 543.6875 376.769531 540.976562 378.175781 537.996094 378.4375 C 489.609375 382.679688 453.5625 372.019531 431.636719 346.917969 C 428.214844 343.007812 425.078125 338.628906 422.328125 333.898438 C 422.265625 333.785156 422.171875 333.675781 422.085938 333.574219 C 419.175781 330.648438 415.1875 329.078125 410.230469 328.902344 C 408.476562 328.839844 406.621094 328.949219 404.558594 329.242188 C 404.335938 329.195312 390.34375 332.269531 376.605469 331.8125 C 345.644531 330.792969 325.734375 316.277344 324.90625 315.667969 C 319.917969 311.988281 318.859375 304.945312 322.535156 299.953125 C 324.730469 296.964844 328.269531 295.257812 331.976562 295.394531 C 334.222656 295.472656 336.371094 296.214844 338.203125 297.550781 C 338.828125 298 353.785156 307.925781 377.210938 309.316406 C 388.535156 309.988281 399.644531 306.414062 400.996094 305.839844 C 409.65625 302.203125 409.332031 292.597656 408.90625 288.882812 C 407.070312 267.167969 410.917969 249.84375 411.070312 249.113281 C 412.40625 243.171875 418.503906 239.269531 424.503906 240.628906 C 430.523438 241.996094 434.339844 248.007812 432.988281 254.039062 C 432.878906 254.527344 422.652344 302.617188 448.640625 332.238281 C 465.613281 351.574219 495.195312 359.648438 536.039062 356.058594 C 542.34375 355.53125 547.683594 360.167969 548.207031 366.269531 C 548.460938 369.253906 547.550781 372.164062 545.621094 374.46875 Z M 536.796875 200.570312 C 516.679688 219.863281 506.769531 250.546875 511.574219 278.761719 C 512.515625 284.253906 508.800781 289.492188 503.3125 290.429688 C 502.742188 290.527344 502.164062 290.574219 501.589844 290.574219 C 496.65625 290.574219 492.234375 287.074219 491.640625 282.160156 C 487.949219 252.015625 497.707031 224.1875 497.820312 223.902344 C 498.46875 222.320312 498.554688 220.945312 498.0625 219.816406 C 497.472656 218.425781 496.128906 217.660156 495.085938 217.25 C 464.925781 213.914062 410.605469 202.433594 385.382812 163.0625 C 381.496094 157.339844 371.332031 160.273438 354.867188 160.25 C 280.902344 160.128906 270.417969 112.625 270.007812 110.597656 C 269.476562 107.957031 270 105.253906 271.492188 103.003906 C 272.984375 100.75 275.253906 99.210938 277.90625 98.679688 C 278.570312 98.539062 279.25 98.46875 279.921875 98.46875 C 284.65625 98.46875 288.8125 101.839844 289.808594 106.472656 C 290.125 107.832031 298.238281 140.003906 355.035156 140.003906 C 357.847656 140.003906 360.777344 139.925781 363.734375 139.761719 C 370.265625 138.96875 373.917969 135.53125 374.867188 129.273438 C 375.804688 107.386719 392.289062 91.117188 401.886719 84.957031 C 403.515625 83.90625 405.398438 83.351562 407.332031 83.351562 C 410.800781 83.351562 413.984375 85.089844 415.859375 88 C 417.320312 90.273438 417.808594 92.976562 417.226562 95.613281 C 416.648438 98.253906 415.082031 100.507812 412.816406 101.96875 C 411.773438 102.65625 387.285156 119.027344 397.660156 143.195312 C 416.339844 186.71875 479.875 195.960938 506.320312 197.90625 C 509.65625 197.644531 513.457031 195.648438 516.71875 192.4375 C 518.949219 189.863281 520.890625 187.792969 522.8125 185.953125 C 548.515625 161.316406 550.054688 137.199219 550.109375 136.1875 C 550.394531 130.625 555.144531 126.296875 560.667969 126.582031 C 566.191406 126.832031 570.519531 131.519531 570.3125 137.035156 C 570.265625 138.378906 568.703125 169.992188 536.796875 200.570312 Z M 536.796875 200.570312 "/></g></g></svg>